<svg class="animated" id="freepik_stories-art" xmlns="http://www.w3.org/2000/svg" viewBox="0 0 500 500" version="1.1" xmlns:xlink="http://www.w3.org/1999/xlink" xmlns:svgjs="http://svgjs.com/svgjs"><style>svg#freepik_stories-art:not(.animated) .animable {opacity: 0;}svg#freepik_stories-art.animated #freepik--Character--inject-11 {animation: 1.5s Infinite  linear wind;animation-delay: 0s;}            @keyframes wind {                0% {                    transform: rotate( 0deg );                }                25% {                    transform: rotate( 1deg );                }                75% {                    transform: rotate( -1deg );                }            }        </style><g id="freepik--background-complete--inject-11" class="animable" style="transform-origin: 250px 228.23px;"><rect y="382.4" width="500" height="0.25" style="fill: rgb(235, 235, 235); transform-origin: 250px 382.525px;" id="el8c76jni0sbv" class="animable"></rect><rect x="416.78" y="398.49" width="33.12" height="0.25" style="fill: rgb(235, 235, 235); transform-origin: 433.34px 398.615px;" id="el54v6mezai4k" class="animable"></rect><rect x="322.53" y="401.21" width="8.69" height="0.25" style="fill: rgb(235, 235, 235); transform-origin: 326.875px 401.335px;" id="elelzlch29ffo" class="animable"></rect><rect x="396.59" y="389.21" width="19.19" height="0.25" style="fill: rgb(235, 235, 235); transform-origin: 406.185px 389.335px;" id="elpa6hf9ojf8" class="animable"></rect><rect x="52.46" y="390.89" width="43.19" height="0.25" style="fill: rgb(235, 235, 235); transform-origin: 74.055px 391.015px;" id="el58651j4vpsn" class="animable"></rect><rect x="104.56" y="390.89" width="6.33" height="0.25" style="fill: rgb(235, 235, 235); transform-origin: 107.725px 391.015px;" id="elqp7dgcllia8" class="animable"></rect><rect x="131.47" y="395.11" width="93.68" height="0.25" style="fill: rgb(235, 235, 235); transform-origin: 178.31px 395.235px;" id="elf6sh1udgkil" class="animable"></rect><path d="M237,337.8H43.91a5.71,5.71,0,0,1-5.7-5.71V60.66A5.71,5.71,0,0,1,43.91,55H237a5.71,5.71,0,0,1,5.71,5.71V332.09A5.71,5.71,0,0,1,237,337.8ZM43.91,55.2a5.46,5.46,0,0,0-5.45,5.46V332.09a5.46,5.46,0,0,0,5.45,5.46H237a5.47,5.47,0,0,0,5.46-5.46V60.66A5.47,5.47,0,0,0,237,55.2Z" style="fill: rgb(235, 235, 235); transform-origin: 140.46px 196.4px;" id="elo75ywmak6c8" class="animable"></path><path d="M453.31,337.8H260.21a5.72,5.72,0,0,1-5.71-5.71V60.66A5.72,5.72,0,0,1,260.21,55h193.1A5.71,5.71,0,0,1,459,60.66V332.09A5.71,5.71,0,0,1,453.31,337.8ZM260.21,55.2a5.47,5.47,0,0,0-5.46,5.46V332.09a5.47,5.47,0,0,0,5.46,5.46h193.1a5.47,5.47,0,0,0,5.46-5.46V60.66a5.47,5.47,0,0,0-5.46-5.46Z" style="fill: rgb(235, 235, 235); transform-origin: 356.75px 196.4px;" id="elp1wp184ew7" class="animable"></path><rect x="38.21" y="55.2" width="419.26" height="282.6" style="fill: rgb(245, 245, 245); transform-origin: 247.84px 196.5px;" id="elbd09ip2kk1" class="animable"></rect><rect x="354.05" y="96.26" width="82.93" height="98.09" style="fill: rgb(224, 224, 224); transform-origin: 395.515px 145.305px;" id="elgo9mxzw2j8g" class="animable"></rect><g id="elb3rg84wvv25"><rect x="359.72" y="101.64" width="71.47" height="86.96" style="fill: rgb(230, 230, 230); transform-origin: 395.455px 145.12px; transform: rotate(180deg);" class="animable"></rect></g><polygon points="370.43 150.69 407.99 113.78 367.35 107.07 370.43 150.69" style="fill: rgb(224, 224, 224); transform-origin: 387.67px 128.88px;" id="elm9bluftro2e" class="animable"></polygon><polygon points="427.36 146.79 429.22 118.49 400.95 125.43 378.35 147.3 427.36 146.79" style="fill: rgb(245, 245, 245); transform-origin: 403.785px 132.895px;" id="elvyji0pzlqsm" class="animable"></polygon><circle cx="402.64" cy="118.49" r="11.42" style="fill: rgb(250, 250, 250); transform-origin: 402.64px 118.49px;" id="el4sz6bijzby6" class="animable"></circle><path d="M418.09,150.69a5.54,5.54,0,1,1,5.53,5.53A5.54,5.54,0,0,1,418.09,150.69Z" style="fill: rgb(224, 224, 224); transform-origin: 423.63px 150.68px;" id="el3wen09i20x" class="animable"></path><polygon points="399.22 167.89 383.23 158.16 403.79 129.9 399.22 167.89" style="fill: rgb(245, 245, 245); transform-origin: 393.51px 148.895px;" id="elfaok0ikp1w" class="animable"></polygon><rect x="406.41" y="110.4" width="3.14" height="69.44" style="fill: rgb(224, 224, 224); transform-origin: 407.98px 145.12px;" id="el7tlq2tngz6r" class="animable"></rect><rect x="412.03" y="111.94" width="4.07" height="66.37" style="fill: rgb(235, 235, 235); transform-origin: 414.065px 145.125px;" id="el0atwau1o06eq" class="animable"></rect><polygon points="398.13 178.31 365.97 154.57 365.97 133.8 386.74 133.8 398.13 178.31" style="fill: rgb(250, 250, 250); transform-origin: 382.05px 156.055px;" id="el9mr3chwmjn" class="animable"></polygon><rect x="367.05" y="201.15" width="56.81" height="6.27" style="fill: rgb(230, 230, 230); transform-origin: 395.455px 204.285px;" id="elh3659g3eobt" class="animable"></rect><rect x="236.25" y="237.02" width="59.15" height="6.27" style="fill: rgb(230, 230, 230); transform-origin: 265.825px 240.155px;" id="elcbpsoccizku" class="animable"></rect><rect x="204.3" y="72.83" width="123.3" height="153.12" style="fill: rgb(224, 224, 224); transform-origin: 265.95px 149.39px;" id="ellbucbm4yar" class="animable"></rect><rect x="212.41" y="79.73" width="106.83" height="141.02" style="fill: rgb(250, 250, 250); transform-origin: 265.825px 150.24px;" id="elvckt3juueml" class="animable"></rect><polygon points="247.24 124.29 247.24 186.29 271.94 184.9 274.78 124.29 247.24 124.29" style="fill: rgb(235, 235, 235); transform-origin: 261.01px 155.29px;" id="el0l6hf4eb3uep" class="animable"></polygon><polygon points="268.74 106.73 306.74 106.73 306.41 211.79 286.73 212.1 268.74 106.73" style="fill: rgb(224, 224, 224); transform-origin: 287.74px 159.415px;" id="el54680cgo4l8" class="animable"></polygon><polygon points="231.74 98.73 241.74 98.73 238.24 209.01 225.74 212.1 231.74 98.73" style="fill: rgb(230, 230, 230); transform-origin: 233.74px 155.415px;" id="elpj8bl01rci" class="animable"></polygon><rect x="57.44" y="81.63" width="116.98" height="141.53" style="fill: rgb(235, 235, 235); transform-origin: 115.93px 152.395px;" id="elkqmsrz4d1uj" class="animable"></rect><rect x="86.18" y="232.5" width="54.1" height="6.27" style="fill: rgb(230, 230, 230); transform-origin: 113.23px 235.635px;" id="el1069i3uim43m" class="animable"></rect><rect x="62.67" y="87.14" width="106.5" height="129.6" style="fill: rgb(224, 224, 224); transform-origin: 115.92px 151.94px;" id="eld2dkiq3w3n5" class="animable"></rect><polygon points="145.04 92.02 68.77 162.69 141.39 170.24 145.04 92.02" style="fill: rgb(235, 235, 235); transform-origin: 106.905px 131.13px;" id="el9vjfxcmyjte" class="animable"></polygon><polygon points="113.23 152.19 114.41 194.44 164.17 211.05 155.34 147.74 113.23 152.19" style="fill: rgb(240, 240, 240); transform-origin: 138.7px 179.395px;" id="elfv75tjf0zmi" class="animable"></polygon><g id="el5d720h33a13"><circle cx="93.41" cy="188.1" r="17.01" style="fill: rgb(230, 230, 230); transform-origin: 93.41px 188.1px; transform: rotate(-45deg);" class="animable"></circle></g><circle cx="143.59" cy="117.24" r="8.25" style="fill: rgb(245, 245, 245); transform-origin: 143.59px 117.24px;" id="elcr63zoffgb" class="animable"></circle><polygon points="89.4 102.74 164.17 141.97 97.36 144.01 89.4 102.74" style="fill: rgb(245, 245, 245); transform-origin: 126.785px 123.375px;" id="el1mp6p1ua428g" class="animable"></polygon></g><g id="freepik--Shadow--inject-11" class="animable" style="transform-origin: 250px 416.24px;"><ellipse id="freepik--path--inject-11" cx="250" cy="416.24" rx="193.89" ry="11.32" style="fill: rgb(245, 245, 245); transform-origin: 250px 416.24px;" class="animable"></ellipse></g><g id="freepik--Banner--inject-11" class="animable" style="transform-origin: 384.06px 304.915px;"><polygon points="367.62 413.23 388.83 250.23 392.62 250.23 396.56 250.23 396.79 250.23 399.35 250.23 401.12 250.23 437.78 413.23 433.78 413.23 400.73 268.49 411.66 413.23 407.09 413.23 394.19 267.9 372.78 413.23 367.62 413.23" style="fill: rgb(38, 50, 56); transform-origin: 402.7px 331.73px;" id="eluednzqp8mzf" class="animable"></polygon><g id="elkevpg4qeppr"><polygon points="367.62 413.23 388.83 250.23 392.62 250.23 396.56 250.23 396.79 250.23 399.35 250.23 401.12 250.23 437.78 413.23 433.78 413.23 400.73 268.49 411.66 413.23 407.09 413.23 394.19 267.9 372.78 413.23 367.62 413.23" style="fill: rgb(255, 255, 255); opacity: 0.4; transform-origin: 402.7px 331.73px;" class="animable"></polygon></g><polygon points="328.34 385.01 418.78 385.01 439.78 196.6 349.34 196.6 328.34 385.01" style="fill: rgb(183, 119, 41); transform-origin: 384.06px 290.805px;" id="el38ebm7nvrc8" class="animable"></polygon><g id="el4k4s3h89nmc"><polygon points="328.34 385.01 418.78 385.01 439.78 196.6 349.34 196.6 328.34 385.01" style="fill: rgb(255, 255, 255); opacity: 0.8; isolation: isolate; transform-origin: 384.06px 290.805px;" class="animable"></polygon></g><polygon points="352.8 213.23 433.71 213.23 434.92 202.38 354.01 202.38 352.8 213.23" style="fill: rgb(183, 119, 41); transform-origin: 393.86px 207.805px;" id="elklhrhdg2ho" class="animable"></polygon><polygon points="403.19 312.88 424.3 312.88 424.49 311.2 403.38 311.2 403.19 312.88" style="fill: rgb(183, 119, 41); transform-origin: 413.84px 312.04px;" id="eljc3tyqtpvx" class="animable"></polygon><polygon points="402.77 316.67 423.88 316.67 424.07 314.99 402.96 314.99 402.77 316.67" style="fill: rgb(183, 119, 41); transform-origin: 413.42px 315.83px;" id="eleot62f2ksau" class="animable"></polygon><g id="el40ba57wg1u9"><polygon points="352.8 213.23 433.71 213.23 434.92 202.38 354.01 202.38 352.8 213.23" style="fill: rgb(255, 255, 255); opacity: 0.6; isolation: isolate; transform-origin: 393.86px 207.805px;" class="animable"></polygon></g><polygon points="341.36 368.31 388.59 368.31 389.01 364.55 341.77 364.55 341.36 368.31" style="fill: rgb(183, 119, 41); transform-origin: 365.185px 366.43px;" id="elb0rh07ge544" class="animable"></polygon><g id="elnwsxut9hvbb"><polygon points="341.36 368.31 388.59 368.31 389.01 364.55 341.77 364.55 341.36 368.31" style="fill: rgb(255, 255, 255); opacity: 0.6; isolation: isolate; transform-origin: 365.185px 366.43px;" class="animable"></polygon></g><polygon points="340.41 376.76 387.64 376.76 388.06 373.01 340.83 373.01 340.41 376.76" style="fill: rgb(183, 119, 41); transform-origin: 364.235px 374.885px;" id="el8l6sx4e48ic" class="animable"></polygon><g id="eldbbsejshoxp"><polygon points="340.41 376.76 387.64 376.76 388.06 373.01 340.83 373.01 340.41 376.76" style="fill: rgb(255, 255, 255); opacity: 0.6; isolation: isolate; transform-origin: 364.235px 374.885px;" class="animable"></polygon></g><polygon points="347.85 306.31 379.11 306.31 382.51 275.8 351.25 275.8 347.85 306.31" style="fill: rgb(183, 119, 41); transform-origin: 365.18px 291.055px;" id="elxqs1l46jwj" class="animable"></polygon><g id="elhrxt6g67m58"><polygon points="347.85 306.31 379.11 306.31 382.51 275.8 351.25 275.8 347.85 306.31" style="fill: rgb(255, 255, 255); opacity: 0.6; isolation: isolate; transform-origin: 365.18px 291.055px;" class="animable"></polygon></g><g id="elyxhtlkc52tr"><polygon points="403.19 312.88 424.3 312.88 424.49 311.2 403.38 311.2 403.19 312.88" style="fill: rgb(255, 255, 255); opacity: 0.6; isolation: isolate; transform-origin: 413.84px 312.04px;" class="animable"></polygon></g><g id="elopmt19ka21j"><polygon points="402.77 316.67 423.88 316.67 424.07 314.99 402.96 314.99 402.77 316.67" style="fill: rgb(255, 255, 255); opacity: 0.6; isolation: isolate; transform-origin: 413.42px 315.83px;" class="animable"></polygon></g><polygon points="392.33 278.69 413.44 278.69 413.63 277 392.52 277 392.33 278.69" style="fill: rgb(183, 119, 41); transform-origin: 402.98px 277.845px;" id="elav7p2hj2glk" class="animable"></polygon><polygon points="391.91 282.47 413.02 282.47 413.21 280.79 392.1 280.79 391.91 282.47" style="fill: rgb(183, 119, 41); transform-origin: 402.56px 281.63px;" id="elf13eu8ktpbb" class="animable"></polygon><g id="el6nspbpxlc9n"><polygon points="392.33 278.69 413.44 278.69 413.63 277 392.52 277 392.33 278.69" style="fill: rgb(255, 255, 255); opacity: 0.6; isolation: isolate; transform-origin: 402.98px 277.845px;" class="animable"></polygon></g><g id="elm001gl28s4l"><polygon points="391.91 282.47 413.02 282.47 413.21 280.79 392.1 280.79 391.91 282.47" style="fill: rgb(255, 255, 255); opacity: 0.6; isolation: isolate; transform-origin: 402.56px 281.63px;" class="animable"></polygon></g><polygon points="390.98 286.25 412.09 286.25 412.28 284.57 391.17 284.57 390.98 286.25" style="fill: rgb(183, 119, 41); transform-origin: 401.63px 285.41px;" id="elz9tme6hijdk" class="animable"></polygon><polygon points="390.56 290.03 411.67 290.03 411.86 288.35 390.75 288.35 390.56 290.03" style="fill: rgb(183, 119, 41); transform-origin: 401.21px 289.19px;" id="elux1di9t5zj" class="animable"></polygon><g id="el8dpln232mgl"><polygon points="390.98 286.25 412.09 286.25 412.28 284.57 391.17 284.57 390.98 286.25" style="fill: rgb(255, 255, 255); opacity: 0.6; isolation: isolate; transform-origin: 401.63px 285.41px;" class="animable"></polygon></g><g id="elfxx00uoi2tb"><polygon points="390.56 290.03 411.67 290.03 411.86 288.35 390.75 288.35 390.56 290.03" style="fill: rgb(255, 255, 255); opacity: 0.6; isolation: isolate; transform-origin: 401.21px 289.19px;" class="animable"></polygon></g><polygon points="402.09 320.45 423.21 320.45 423.39 318.77 402.28 318.77 402.09 320.45" style="fill: rgb(183, 119, 41); transform-origin: 412.74px 319.61px;" id="elvyrd8bsu3cg" class="animable"></polygon><polygon points="401.67 324.23 422.79 324.23 422.97 322.55 401.86 322.55 401.67 324.23" style="fill: rgb(183, 119, 41); transform-origin: 412.32px 323.39px;" id="elw67ww8s2yo" class="animable"></polygon><g id="el07iq74kaoox"><polygon points="402.09 320.45 423.21 320.45 423.39 318.77 402.28 318.77 402.09 320.45" style="fill: rgb(255, 255, 255); opacity: 0.6; isolation: isolate; transform-origin: 412.74px 319.61px;" class="animable"></polygon></g><g id="elr9229n3ybjk"><polygon points="401.67 324.23 422.79 324.23 422.97 322.55 401.86 322.55 401.67 324.23" style="fill: rgb(255, 255, 255); opacity: 0.6; isolation: isolate; transform-origin: 412.32px 323.39px;" class="animable"></polygon></g><polygon points="400.74 328.01 421.86 328.01 422.04 326.33 400.93 326.33 400.74 328.01" style="fill: rgb(183, 119, 41); transform-origin: 411.39px 327.17px;" id="el4y2uhbg8hp8" class="animable"></polygon><polygon points="400.32 331.79 421.44 331.79 421.62 330.11 400.51 330.11 400.32 331.79" style="fill: rgb(183, 119, 41); transform-origin: 410.97px 330.95px;" id="elmeoxnw9ef" class="animable"></polygon><g id="elzd0xvgm7ldc"><polygon points="400.74 328.01 421.86 328.01 422.04 326.33 400.93 326.33 400.74 328.01" style="fill: rgb(255, 255, 255); opacity: 0.6; isolation: isolate; transform-origin: 411.39px 327.17px;" class="animable"></polygon></g><g id="el6dhl3v0zto3"><polygon points="400.32 331.79 421.44 331.79 421.62 330.11 400.51 330.11 400.32 331.79" style="fill: rgb(255, 255, 255); opacity: 0.6; isolation: isolate; transform-origin: 410.97px 330.95px;" class="animable"></polygon></g><polygon points="410.54 223.11 431.65 223.11 431.84 221.43 410.72 221.43 410.54 223.11" style="fill: rgb(183, 119, 41); transform-origin: 421.19px 222.27px;" id="el7oco4knaui8" class="animable"></polygon><polygon points="410.12 226.89 431.23 226.89 431.42 225.21 410.3 225.21 410.12 226.89" style="fill: rgb(183, 119, 41); transform-origin: 420.77px 226.05px;" id="el8zwqhuilw7b" class="animable"></polygon><g id="el6o7n5ksrojw"><polygon points="410.54 223.11 431.65 223.11 431.84 221.43 410.72 221.43 410.54 223.11" style="fill: rgb(255, 255, 255); opacity: 0.6; isolation: isolate; transform-origin: 421.19px 222.27px;" class="animable"></polygon></g><g id="el04v0pw8jrtjy"><polygon points="410.12 226.89 431.23 226.89 431.42 225.21 410.3 225.21 410.12 226.89" style="fill: rgb(255, 255, 255); opacity: 0.6; isolation: isolate; transform-origin: 420.77px 226.05px;" class="animable"></polygon></g><polygon points="409.44 230.67 430.55 230.67 430.74 228.99 409.63 228.99 409.44 230.67" style="fill: rgb(183, 119, 41); transform-origin: 420.09px 229.83px;" id="el0f4zypwqgjjo" class="animable"></polygon><polygon points="409.02 234.45 430.13 234.45 430.32 232.77 409.21 232.77 409.02 234.45" style="fill: rgb(183, 119, 41); transform-origin: 419.67px 233.61px;" id="el0n8i64n55e2i" class="animable"></polygon><g id="elmn3ml4e7cr"><polygon points="409.44 230.67 430.55 230.67 430.74 228.99 409.63 228.99 409.44 230.67" style="fill: rgb(255, 255, 255); opacity: 0.6; isolation: isolate; transform-origin: 420.09px 229.83px;" class="animable"></polygon></g><g id="el6tyin3a1qe"><polygon points="409.02 234.45 430.13 234.45 430.32 232.77 409.21 232.77 409.02 234.45" style="fill: rgb(255, 255, 255); opacity: 0.6; isolation: isolate; transform-origin: 419.67px 233.61px;" class="animable"></polygon></g><polygon points="408.09 238.24 429.2 238.24 429.39 236.56 408.28 236.56 408.09 238.24" style="fill: rgb(183, 119, 41); transform-origin: 418.74px 237.4px;" id="el8j8xuk5wjxh" class="animable"></polygon><polygon points="407.67 242.02 428.78 242.02 428.97 240.34 407.86 240.34 407.67 242.02" style="fill: rgb(183, 119, 41); transform-origin: 418.32px 241.18px;" id="elay3xj5owdm" class="animable"></polygon><g id="elx92uq6u13gn"><polygon points="408.09 238.24 429.2 238.24 429.39 236.56 408.28 236.56 408.09 238.24" style="fill: rgb(255, 255, 255); opacity: 0.6; isolation: isolate; transform-origin: 418.74px 237.4px;" class="animable"></polygon></g><g id="elct9amok50nl"><polygon points="407.67 242.02 428.78 242.02 428.97 240.34 407.86 240.34 407.67 242.02" style="fill: rgb(255, 255, 255); opacity: 0.6; isolation: isolate; transform-origin: 418.32px 241.18px;" class="animable"></polygon></g><polygon points="340.41 360.69 391.11 360.69 396.63 311.2 345.93 311.2 340.41 360.69" style="fill: rgb(183, 119, 41); transform-origin: 368.52px 335.945px;" id="elf2rzkcpk57e" class="animable"></polygon><g id="elon5chsup2oc"><polygon points="340.41 360.69 391.11 360.69 396.63 311.2 345.93 311.2 340.41 360.69" style="fill: rgb(255, 255, 255); opacity: 0.6; isolation: isolate; transform-origin: 368.52px 335.945px;" class="animable"></polygon></g><polygon points="351.45 270.91 402.15 270.91 407.67 221.43 356.97 221.43 351.45 270.91" style="fill: rgb(183, 119, 41); transform-origin: 379.56px 246.17px;" id="ellgf5xxdmkp" class="animable"></polygon><g id="elzx8gijolsl"><polygon points="351.45 270.91 402.15 270.91 407.67 221.43 356.97 221.43 351.45 270.91" style="fill: rgb(255, 255, 255); opacity: 0.6; isolation: isolate; transform-origin: 379.56px 246.17px;" class="animable"></polygon></g></g><g id="freepik--Statue--inject-11" class="animable" style="transform-origin: 246.245px 235.875px;"><rect x="208.82" y="278.31" width="76" height="22.39" style="fill: rgb(38, 50, 56); transform-origin: 246.82px 289.505px;" id="elngvoxpkhrfg" class="animable"></rect><g id="ele463urb0dl8"><rect x="236.25" y="278.31" width="48.57" height="22.39" style="fill: rgb(255, 255, 255); opacity: 0.2; isolation: isolate; transform-origin: 260.535px 289.505px;" class="animable"></rect></g><rect x="182.12" y="300.68" width="128.25" height="112.55" style="fill: rgb(38, 50, 56); transform-origin: 246.245px 356.955px;" id="elglhoidzpe3" class="animable"></rect><g id="elzbh3bzml6rq"><rect x="231.62" y="300.68" width="78.75" height="112.55" style="fill: rgb(255, 255, 255); opacity: 0.4; transform-origin: 270.995px 356.955px;" class="animable"></rect></g><polygon points="219.94 113.96 232.4 106.24 238.16 98.36 237.72 94.06 231.85 63.91 243.17 58.52 258.09 63.77 258.82 91.17 251.93 93.67 252.37 98.36 259.55 103.19 277.93 105.23 271.72 168.9 274.99 175.21 280.46 195.52 267.61 278.34 227.75 278.34 213.18 196.72 224.82 171.64 230.68 165.78 219.94 113.96" style="fill: rgb(183, 119, 41); transform-origin: 246.82px 168.43px;" id="elw6zrm6vcnli" class="animable"></polygon><g id="eljyi0rlw4rw"><polygon points="233.03 129.28 233.03 143.06 239.91 148.19 255.6 137.25 229.63 160.71 225.47 140.64 229.07 137.93 225.47 118.14 233.03 129.28" style="opacity: 0.4; transform-origin: 240.535px 139.425px;" class="animable"></polygon></g><g id="elye9rxu0gjkh"><polygon points="255.6 137.25 260.14 148.19 273.09 154.83 276.76 117.18 272.6 129.13 273.18 137.25 269.08 142.18 255.6 137.25" style="opacity: 0.4; transform-origin: 266.18px 136.005px;" class="animable"></polygon></g><g id="elch1jeksa25n"><polygon points="230.68 165.78 251.05 160.71 255.6 147.31 251.64 183.66 242.11 177.21 249.15 177.5 251.93 165.48 224.82 171.64 230.68 165.78" style="opacity: 0.4; transform-origin: 240.21px 165.485px;" class="animable"></polygon></g><g id="el9vs6n2vtoqs"><polygon points="280.46 195.52 221.58 243.75 213.18 196.72 220.42 181.12 227.31 232.17 243.43 220.44 232.29 198.75 246.82 217.37 280.46 195.52" style="opacity: 0.4; transform-origin: 246.82px 212.435px;" class="animable"></polygon></g><g id="elvb31fwbcnp"><polygon points="271.72 168.9 261.31 162.45 270.25 165.48 273.09 154.83 271.72 168.9" style="opacity: 0.4; transform-origin: 267.2px 161.865px;" class="animable"></polygon></g><g id="elwtur1dzyeyi"><polygon points="233.71 104.45 250.76 111.99 255.6 107.44 250.17 110.23 240.53 104.45 240.53 98.8 237.72 94.06 238.16 98.36 233.71 104.45" style="opacity: 0.4; transform-origin: 244.655px 103.025px;" class="animable"></polygon></g><g id="elnh74rhgsym"><polygon points="258.82 91.17 251.93 93.67 241.82 92.42 236.28 86.7 237.2 74.47 242.41 89.86 252.08 91.91 258.82 91.17" style="opacity: 0.4; transform-origin: 247.55px 84.07px;" class="animable"></polygon></g><g id="elmrrqv9hgvb8"><polygon points="255.6 86.7 246.27 86.7 250.93 87.8 251.93 90.59 252.22 87.66 255.6 86.7" style="opacity: 0.4; transform-origin: 250.935px 88.645px;" class="animable"></polygon></g><g id="elrv8u81kdz1"><polygon points="238.89 71.83 249 71.83 253.25 81.75 250.93 82.82 250.93 85.46 249.88 82.82 246.82 75.64 247.97 74.47 241.23 75.05 238.89 71.83" style="opacity: 0.4; transform-origin: 246.07px 78.645px;" class="animable"></polygon></g><g id="elo3vlrf4rfu"><polygon points="251.78 71.83 253.25 74.03 256.48 74.03 255.6 75.2 258.37 74.47 258.3 71.83 251.78 71.83" style="opacity: 0.4; transform-origin: 255.075px 73.515px;" class="animable"></polygon></g><g id="eles9ru8btozu"><polygon points="229.12 113.21 242.8 127.08 238.89 137.25 250.93 124.35 272.84 132.5 272.6 129.13 276.76 117.18 277.93 105.23 250.93 114.77 229.12 113.21" style="fill: rgb(255, 255, 255); opacity: 0.3; transform-origin: 253.525px 121.24px;" class="animable"></polygon></g><g id="elv7y9j8jwtvs"><polygon points="250.93 93.54 250.17 106.78 247.55 93.13 250.93 93.54" style="fill: rgb(255, 255, 255); opacity: 0.3; transform-origin: 249.24px 99.955px;" class="animable"></polygon></g><g id="eln3il9l3r8n"><polygon points="253.52 76.74 255.6 82.09 254.56 82.97 258.67 85.46 258.37 76.37 256.55 77.76 253.52 76.74" style="fill: rgb(255, 255, 255); opacity: 0.3; transform-origin: 256.095px 80.915px;" class="animable"></polygon></g><g id="el33df30vawg9"><polygon points="238.23 64.28 239.69 67.58 250.93 69.19 256.62 67.72 256.1 64.28 243.5 59.52 238.23 64.28" style="fill: rgb(255, 255, 255); opacity: 0.3; transform-origin: 247.425px 64.355px;" class="animable"></polygon></g><g id="eliig0735a9gi"><polygon points="260.51 165.48 259.41 187.03 255.6 202.42 277.93 191.72 267.83 185.64 260.51 165.48" style="fill: rgb(255, 255, 255); opacity: 0.3; transform-origin: 266.765px 183.95px;" class="animable"></polygon></g><g id="elwppmt298uc"><polygon points="260.73 151.27 268.86 160.71 268.86 154.83 260.73 151.27" style="fill: rgb(255, 255, 255); opacity: 0.3; transform-origin: 264.795px 155.99px;" class="animable"></polygon></g><g id="elb87v33xbqub"><polygon points="273.09 207.6 263.31 278.34 251.2 278.34 264.79 214.63 273.09 207.6" style="fill: rgb(255, 255, 255); opacity: 0.3; transform-origin: 262.145px 242.97px;" class="animable"></polygon></g></g><g id="freepik--Stanchion--inject-11" class="animable" style="transform-origin: 246.45px 338.89px;"><circle cx="354.2" cy="271.83" r="7.28" style="fill: rgb(38, 50, 56); transform-origin: 354.2px 271.83px;" id="eld9yqg6epku9" class="animable"></circle><g id="el7mj64f7l5i3"><circle cx="354.2" cy="271.83" r="7.28" style="fill: rgb(255, 255, 255); opacity: 0.5; transform-origin: 354.2px 271.83px;" class="animable"></circle></g><g id="el488101dngwf"><path d="M358.75,268a1.49,1.49,0,1,1-1.48-1.48A1.49,1.49,0,0,1,358.75,268Z" style="fill: rgb(255, 255, 255); opacity: 0.5; transform-origin: 357.26px 268.01px;" class="animable"></path></g><rect x="347" y="278.34" width="14.4" height="134.89" style="fill: rgb(38, 50, 56); transform-origin: 354.2px 345.785px;" id="elx5elsczrtyr" class="animable"></rect><g id="elq2zblfqaae"><rect x="347" y="278.34" width="14.4" height="134.89" style="fill: rgb(255, 255, 255); opacity: 0.4; transform-origin: 354.2px 345.785px;" class="animable"></rect></g><g id="elzbgkv21zqir"><rect x="356.9" y="280.98" width="1.58" height="128.92" style="fill: rgb(255, 255, 255); opacity: 0.3; transform-origin: 357.69px 345.44px;" class="animable"></rect></g><circle cx="138.7" cy="271.83" r="7.28" style="fill: rgb(38, 50, 56); transform-origin: 138.7px 271.83px;" id="el35oxgbfx5ut" class="animable"></circle><g id="el2gp793ra89d"><circle cx="138.7" cy="271.83" r="7.28" style="fill: rgb(255, 255, 255); opacity: 0.5; transform-origin: 138.7px 271.83px;" class="animable"></circle></g><g id="elgl1p0cq6tug"><path d="M143.25,268a1.49,1.49,0,1,1-3,0,1.49,1.49,0,0,1,3,0Z" style="fill: rgb(255, 255, 255); opacity: 0.5; transform-origin: 141.75px 268px;" class="animable"></path></g><rect x="131.5" y="278.34" width="14.4" height="134.89" style="fill: rgb(38, 50, 56); transform-origin: 138.7px 345.785px;" id="elm9mtd6qo3ai" class="animable"></rect><g id="elmjo4wfqg72"><rect x="131.5" y="278.34" width="14.4" height="134.89" style="fill: rgb(255, 255, 255); opacity: 0.4; transform-origin: 138.7px 345.785px;" class="animable"></rect></g><g id="elg543hnpync"><rect x="141.4" y="280.98" width="1.58" height="128.92" style="fill: rgb(255, 255, 255); opacity: 0.3; transform-origin: 142.19px 345.44px;" class="animable"></rect></g><polygon points="348.8 282.32 341.43 287.68 343.18 290.43 348.8 286.38 348.8 282.32" style="fill: rgb(38, 50, 56); transform-origin: 345.115px 286.375px;" id="elwjed3xqqq4" class="animable"></polygon><g id="elpevtxrrzr2"><polygon points="348.8 282.32 341.43 287.68 343.18 290.43 348.8 286.38 348.8 282.32" style="fill: rgb(255, 255, 255); opacity: 0.2; transform-origin: 345.115px 286.375px;" class="animable"></polygon></g><polygon points="340.19 285.87 344.3 291.94 343.4 292.56 339.24 286.46 340.19 285.87" style="fill: rgb(38, 50, 56); transform-origin: 341.77px 289.215px;" id="eln9wozinmjz" class="animable"></polygon><g id="el3dlvyqp8j9"><polygon points="340.19 285.87 344.3 291.94 343.4 292.56 339.24 286.46 340.19 285.87" style="fill: rgb(255, 255, 255); opacity: 0.1; transform-origin: 341.77px 289.215px;" class="animable"></polygon></g><polygon points="143.25 282.32 150.62 287.68 148.87 290.43 143.25 286.38 143.25 282.32" style="fill: rgb(38, 50, 56); transform-origin: 146.935px 286.375px;" id="elpy1sbwq0c5c" class="animable"></polygon><g id="elxs7ktyxsk7"><polygon points="143.25 282.32 150.62 287.68 148.87 290.43 143.25 286.38 143.25 282.32" style="fill: rgb(255, 255, 255); opacity: 0.2; transform-origin: 146.935px 286.375px;" class="animable"></polygon></g><polygon points="151.04 285.87 146.93 291.94 147.83 292.56 151.99 286.46 151.04 285.87" style="fill: rgb(38, 50, 56); transform-origin: 149.46px 289.215px;" id="elit4iqfj3wqk" class="animable"></polygon><g id="elvg5k8h6xbb"><polygon points="151.04 285.87 146.93 291.94 147.83 292.56 151.99 286.46 151.04 285.87" style="fill: rgb(255, 255, 255); opacity: 0.1; transform-origin: 149.46px 289.215px;" class="animable"></polygon></g><path d="M151.8,286.74l-3.75,5.51,23.27,10.15a186.91,186.91,0,0,0,152.46-1.29l19.4-8.86-3.75-5.51-16.22,7.37a187,187,0,0,1-152.38,1Z" style="fill: rgb(183, 119, 41); transform-origin: 245.615px 302.377px;" id="eljf60r747sip" class="animable"></path><g id="elr6milmwkvl"><path d="M151.8,286.74l-3.75,5.51,23.27,10.15a186.91,186.91,0,0,0,152.46-1.29l19.4-8.86-3.75-5.51-16.22,7.37a187,187,0,0,1-152.38,1Z" style="fill: rgb(255, 255, 255); opacity: 0.05; transform-origin: 245.615px 302.377px;" class="animable"></path></g></g><g id="freepik--Character--inject-11" class="animable animator-active" style="transform-origin: 93.4058px 262.852px;"><polygon points="104.78 407.03 112.9 407.88 114.42 390.39 106.31 389.53 104.78 407.03" style="fill: rgb(228, 137, 123); transform-origin: 109.6px 398.705px;" id="ellf3aw3fw0po" class="animable"></polygon><polygon points="64.31 406.44 72.17 406.44 72.82 388.23 64.95 388.23 64.31 406.44" style="fill: rgb(228, 137, 123); transform-origin: 68.565px 397.335px;" id="elkcq0srwj86" class="animable"></polygon><path d="M73.26,405.53H63.71a.68.68,0,0,0-.67.54l-1.55,7a1.15,1.15,0,0,0,.89,1.37,1.09,1.09,0,0,0,.26,0c3.09-.05,5.34-.24,9.22-.24,2.39,0,9.6.25,12.9.25s3.73-3.26,2.38-3.56c-6.06-1.32-10.62-3.15-12.56-4.89A1.91,1.91,0,0,0,73.26,405.53Z" style="fill: rgb(46, 53, 58); transform-origin: 74.6604px 409.989px;" id="elayn5wyima9q" class="animable"></path><path d="M73.8,406.62a.19.19,0,0,1-.14-.16.15.15,0,0,1,.09-.18c.28-.18,2.82-1.74,3.69-1.29a.57.57,0,0,1,.32.52,1.12,1.12,0,0,1-.39,1,2.39,2.39,0,0,1-1.51.4A9.47,9.47,0,0,1,73.8,406.62Zm.54-.26a3.82,3.82,0,0,0,2.8-.14.8.8,0,0,0,.25-.67c0-.15-.07-.22-.12-.22a.42.42,0,0,0-.24-.05A7.5,7.5,0,0,0,74.34,406.36Z" style="fill: rgb(183, 119, 41); transform-origin: 75.7118px 405.913px;" id="elseljz78pag" class="animable"></path><path d="M73.75,406.66a.18.18,0,0,1-.09-.17c0-.11.2-2.37,1.11-3.11a1,1,0,0,1,.79-.24.61.61,0,0,1,.6.49c.16.83-1.41,2.56-2.22,3h-.09A.19.19,0,0,1,73.75,406.66ZM75,403.6a4.31,4.31,0,0,0-.93,2.46c.81-.61,1.81-1.92,1.71-2.43,0-.05,0-.19-.27-.19h-.09A.58.58,0,0,0,75,403.6Z" style="fill: rgb(183, 119, 41); transform-origin: 74.9154px 404.896px;" id="el7u4h4nv46y" class="animable"></path><path d="M113.76,405.28h-9.55a.68.68,0,0,0-.67.54l-1.55,7a1.15,1.15,0,0,0,.89,1.37,1.09,1.09,0,0,0,.26,0c3.09-.05,5.34-.24,9.22-.24,2.39,0,9.6.25,12.9.25s3.73-3.26,2.38-3.56c-6.06-1.32-10.62-3.15-12.56-4.89A1.91,1.91,0,0,0,113.76,405.28Z" style="fill: rgb(46, 53, 58); transform-origin: 115.16px 409.739px;" id="el7i4otd82muj" class="animable"></path><path d="M114.3,406.37a.19.19,0,0,1-.14-.16.15.15,0,0,1,.09-.18c.28-.18,2.82-1.74,3.69-1.29a.57.57,0,0,1,.32.52,1.12,1.12,0,0,1-.39,1,2.39,2.39,0,0,1-1.51.4A9.47,9.47,0,0,1,114.3,406.37Zm.54-.26a3.82,3.82,0,0,0,2.8-.14.8.8,0,0,0,.25-.67c0-.15-.07-.22-.12-.22a.42.42,0,0,0-.24-.05A7.5,7.5,0,0,0,114.84,406.11Z" style="fill: rgb(183, 119, 41); transform-origin: 116.212px 405.663px;" id="elwggpjzy47f8" class="animable"></path><path d="M114.25,406.41a.18.18,0,0,1-.09-.17c0-.11.2-2.37,1.11-3.11a1,1,0,0,1,.79-.24.61.61,0,0,1,.6.49c.16.83-1.41,2.56-2.22,3h-.09A.19.19,0,0,1,114.25,406.41Zm1.26-3.06a4.31,4.31,0,0,0-.93,2.46c.81-.61,1.81-1.92,1.71-2.43,0-.05,0-.19-.27-.19h-.09A.58.58,0,0,0,115.51,403.35Z" style="fill: rgb(183, 119, 41); transform-origin: 115.415px 404.646px;" id="el1z2w9uet7q3h" class="animable"></path><g id="elmsj31tmqr3"><polygon points="106.31 389.53 114.42 390.39 113.63 399.41 105.52 398.56 106.31 389.53" style="opacity: 0.2; isolation: isolate; transform-origin: 109.97px 394.47px;" class="animable"></polygon></g><g id="elk2j2dada17l"><polygon points="64.95 388.24 72.82 388.24 72.48 397.63 64.61 397.63 64.95 388.24" style="opacity: 0.2; isolation: isolate; transform-origin: 68.715px 392.935px;" class="animable"></polygon></g><path d="M68.19,228.5h41.73c4,21.66,16.38,98.32,7.47,166.63l-14.12-1.75s1.3-90.68-11.17-124.2c-1.43,17.94-3.14,37-4.61,47.18-3.63,25-11.4,79.64-11.4,79.64H61.71s2.94-52.3,4.3-76.87C67.49,292.46,68.13,234,68.19,228.5Z" style="fill: rgb(183, 119, 41); transform-origin: 91.1275px 312.25px;" id="elv755pvy94ng" class="animable"></path><g id="elif9nhaxc0b"><path d="M61.71,396H76.09s7.77-54.64,11.4-79.64c1.48-10.15,3.18-29.24,4.62-47.18a111.8,111.8,0,0,1,4.66,18.05c7.45,40.21,6.5,106.15,6.5,106.15l14.12,2c8.91-68.31-3.5-145.38-7.47-166.38H68.2c-.06,5-.7,63.71-2.19,90.38C64.65,344,61.71,396,61.71,396Z" style="fill: rgb(255, 255, 255); opacity: 0.2; isolation: isolate; transform-origin: 91.1253px 312.5px;" class="animable"></path></g><polygon points="119.01 398.42 101.52 395.82 102.06 390.98 120.25 393.36 119.01 398.42" style="fill: rgb(183, 119, 41); transform-origin: 110.885px 394.7px;" id="el6y14yrf08q" class="animable"></polygon><polygon points="77.82 396.12 60.86 396.12 60.86 391.05 78.46 390.72 77.82 396.12" style="fill: rgb(183, 119, 41); transform-origin: 69.66px 393.42px;" id="ell474txs0u09" class="animable"></polygon><path d="M61,160a176.11,176.11,0,0,1,5,25.87c.33,2.68.6,5.31.82,7.86.29,3.24.49,6.36.65,9.32.2,3.75.26,8.18.25,12.54,0,10-.42,19.65-.42,19.65,8,2,31.12.67,43.75-.25a201,201,0,0,0,1.16-36.41,208,208,0,0,0-2.65-23.93,102.87,102.87,0,0,0-2.82-12.52,8,8,0,0,0-6.64-5.51c-1.53-.19-3.3-.38-5.16-.49-.72,0-1.44-.07-2.17-.08A154.22,154.22,0,0,0,74.9,157.3c-1.12.13-2.26.3-3.36.48A102.46,102.46,0,0,0,61,160Z" style="fill: rgb(183, 119, 41); transform-origin: 86.7793px 196.166px;" id="el6kvacg1ln1l" class="animable"></path><path d="M98.48,122.58s1.33,8.92-4.42,13.09-5.75-16-5.75-16Z" style="fill: rgb(38, 50, 56); transform-origin: 93.4615px 127.954px;" id="elq9h0mj95xph" class="animable"></path><path d="M75.1,157.42c3.83,3.48,13.21,2.19,13.21,2.19s5.86-1.6,4.63-3.43c-3.45-.57-5.12-2.18-5.81-4.24a10,10,0,0,1-.35-3.94,20.71,20.71,0,0,1,.29-2.2l-11.6-8.59C77,142.88,78.85,153.31,75.1,157.42Z" style="fill: rgb(228, 137, 123); transform-origin: 84.1048px 148.527px;" id="el7m0f99p45j8" class="animable"></path><g id="el330mlhloxa3"><path d="M78.15,142.67c.46,7,6.18,8.88,9,9.27a10,10,0,0,1-.35-3.94Z" style="opacity: 0.2; isolation: isolate; transform-origin: 82.65px 147.305px;" class="animable"></path></g><path d="M77.37,144.28a9.83,9.83,0,0,0,11.29,3.81A11,11,0,0,0,94.91,143a11.2,11.2,0,0,0,.52-1c2.83-6.62,3.73-18.2-3.27-22.54a10.66,10.66,0,0,0-16.28,8C75,135.19,74.15,139.7,77.37,144.28Z" style="fill: rgb(228, 137, 123); transform-origin: 86.307px 133.217px;" id="eluvoak6mnfd" class="animable"></path><path d="M87.16,131.58c-.15.62.13,1.19.55,1.26s.82-.39.93-1-.14-1.19-.54-1.25S87.27,131,87.16,131.58Z" style="fill: rgb(46, 53, 58); transform-origin: 87.8925px 131.716px;" id="elr924njxm2dc" class="animable"></path><path d="M94.23,132.79c-.15.61.14,1.19.54,1.26s.83-.39.94-1-.14-1.19-.55-1.26S94.33,132.2,94.23,132.79Z" style="fill: rgb(46, 53, 58); transform-origin: 94.9629px 132.92px;" id="el8zoxzar2e2j" class="animable"></path><path d="M91.93,132.71A22.6,22.6,0,0,0,94,138.57a3.69,3.69,0,0,1-3.1.05Z" style="fill: rgb(222, 87, 83); transform-origin: 92.45px 135.823px;" id="elppg50eczp8j" class="animable"></path><path d="M85.36,128.92a.4.4,0,0,0,.38-.08A3,3,0,0,1,88.3,128a.37.37,0,0,0,.45-.27.38.38,0,0,0-.27-.45h0a3.68,3.68,0,0,0-3.23,1,.38.38,0,0,0,0,.53h0A.49.49,0,0,0,85.36,128.92Z" style="fill: rgb(38, 50, 56); transform-origin: 86.9508px 128.08px;" id="elmc13oy98ss" class="animable"></path><path d="M89.33,141.68h0a5.69,5.69,0,0,1-4.63-2.52.21.21,0,0,1,.07-.27A.2.2,0,0,1,85,139h0a5.48,5.48,0,0,0,4.31,2.32.2.2,0,0,1,.2.19v0a.18.18,0,0,1-.18.19Z" style="fill: rgb(46, 53, 58); transform-origin: 87.0936px 140.292px;" id="el59btculo2pc" class="animable"></path><path d="M97.68,130.87a.31.31,0,0,0,.21,0,.36.36,0,0,0,.26-.45h0A3.67,3.67,0,0,0,95.86,128a.36.36,0,0,0-.46.25h0a.38.38,0,0,0,.24.46h0a3,3,0,0,1,1.79,2A.35.35,0,0,0,97.68,130.87Z" style="fill: rgb(38, 50, 56); transform-origin: 96.7752px 129.435px;" id="el8e8f30n80iy" class="animable"></path><path d="M85.64,122.42c-2.16-1.09-4.74.62-4.16,2.91.75,3-1.42,7.25-3.84,8.75,0,0,.09-1.25-1-1.08s-1.58,6.67.09,10c0,0-2.75-3.17-3.67-10.17s-.33-12.58,1.58-14.5,2.42.09,3.84-2.58,4.25-5.67,6.66-3.92,4.92,2.09,6.84.75,4.08.84,3.83,3.25,3.75.67,4.58,3.17S99.33,129.26,85.64,122.42Z" style="fill: rgb(38, 50, 56); transform-origin: 86.5951px 127.154px;" id="eloegkt6qq04j" class="animable"></path><path d="M71.45,133.17A7.42,7.42,0,0,0,75,137.58c2.28,1.23,4-.69,3.84-3.15-.16-2.18-1.52-5.52-4-5.71S70.8,130.85,71.45,133.17Z" style="fill: rgb(228, 137, 123); transform-origin: 75.0763px 133.336px;" id="eldufz6hob3g" class="animable"></path><path d="M90.26,139.55s3.3.06,3.74.72-.37,2.2-.37,2.2a2.48,2.48,0,0,0,1.56,0c.55-.3.82-1.46.82-1.46a5,5,0,0,1-.27,1.95c-.36.86-2.7,2.36-3.77,2.09s-.34-2.14-.6-2.77-1.69-1.53-1.69-1.53Z" style="fill: rgb(38, 50, 56); transform-origin: 92.8496px 142.316px;" id="elfjc7bsy1j29" class="animable"></path><path d="M86.93,136.44c1.14.1,3.24,3.1,3.24,3.1l-.56,1.21s-3.08-2.16-3.87-2.12-2.94,2.08-3.74,1.49-.32-2,0-3.48a3.37,3.37,0,0,1,2.1-2.08,5.27,5.27,0,0,0-.94,2.05c0,.8.94,1,.94,1S85.8,136.34,86.93,136.44Z" style="fill: rgb(38, 50, 56); transform-origin: 85.8661px 137.655px;" id="el34nf326cq02" class="animable"></path><path d="M79.78,130.93a5.1,5.1,0,0,1,1,3.12,33.21,33.21,0,0,1-.78,5.71s-.11,3.41,2,4.39,4.31-1.83,4.31-1.83l.62.35s.69,2.72,1.57,3.19,3.77.28,3.77.28-.83,3-2,3.72-5.89.33-7,0-5.93-4.41-6.81-5.71-1.12-3.89-.83-6.2,2.61-4.38,2.9-5.1a4.72,4.72,0,0,0,.15-1.92Z" style="fill: rgb(38, 50, 56); transform-origin: 83.8916px 140.598px;" id="el3reesmvoxpl" class="animable"></path><path d="M83,120.27,100.39,119A9.91,9.91,0,0,0,94,112.35c-6.1-2-14.45-.56-22.51-1l2.93,2.55-1.14.08,1.81,1.8-.9.56,3.08.88Z" style="fill: rgb(38, 50, 56); transform-origin: 85.94px 115.762px;" id="elbipdnprjqi" class="animable"></path><polygon points="77.77 130.8 84.68 129.5 84.68 130.17 77.98 131.19 77.77 130.8" style="fill: rgb(38, 50, 56); transform-origin: 81.225px 130.345px;" id="elemdkgdmj2i" class="animable"></polygon><g id="el4fc2c4tcb74"><polygon points="77.77 130.8 84.68 129.5 84.68 130.17 77.98 131.19 77.77 130.8" style="fill: rgb(255, 255, 255); opacity: 0.5; transform-origin: 81.225px 130.345px;" class="animable"></polygon></g><polygon points="91.2 130.69 92.69 130.9 92.78 131.4 91.07 131.16 91.2 130.69" style="fill: rgb(38, 50, 56); transform-origin: 91.925px 131.045px;" id="el4nyvztx5url" class="animable"></polygon><g id="eljt5z704t3a"><polygon points="91.2 130.69 92.69 130.9 92.78 131.4 91.07 131.16 91.2 130.69" style="fill: rgb(255, 255, 255); opacity: 0.5; transform-origin: 91.925px 131.045px;" class="animable"></polygon></g><path d="M90.88,129.85,85.49,129a.71.71,0,0,0-.83.68l-.13,3.4a.72.72,0,0,0,.61.73l3.9.59a.73.73,0,0,0,.74-.38l1.62-3.1A.71.71,0,0,0,90.88,129.85Zm0,1.13-1.42,2.7a.61.61,0,0,1-.64.33l-3.41-.51a.64.64,0,0,1-.53-.64l.11-3a.63.63,0,0,1,.73-.59l4.7.77A.63.63,0,0,1,90.91,131Z" style="fill: rgb(38, 50, 56); transform-origin: 88.0155px 131.698px;" id="elg1drcmv8fba" class="animable"></path><g id="elu58t5xgr1ho"><path d="M90.88,129.85,85.49,129a.71.71,0,0,0-.83.68l-.13,3.4a.72.72,0,0,0,.61.73l3.9.59a.73.73,0,0,0,.74-.38l1.62-3.1A.71.71,0,0,0,90.88,129.85Zm0,1.13-1.42,2.7a.61.61,0,0,1-.64.33l-3.41-.51a.64.64,0,0,1-.53-.64l.11-3a.63.63,0,0,1,.73-.59l4.7.77A.63.63,0,0,1,90.91,131Z" style="fill: rgb(255, 255, 255); opacity: 0.3; transform-origin: 88.0155px 131.698px;" class="animable"></path></g><path d="M98.44,131.25l-5.28-1a.51.51,0,0,0-.61.58l.51,3.86a.53.53,0,0,0,.41.45l3.61.73a.53.53,0,0,0,.6-.35l1.16-3.61A.52.52,0,0,0,98.44,131.25Zm.09.78-1,3.26a.49.49,0,0,1-.55.32l-3.25-.67a.46.46,0,0,1-.37-.4l-.47-3.49a.47.47,0,0,1,.56-.52l4.76.9A.46.46,0,0,1,98.53,132Z" style="fill: rgb(38, 50, 56); transform-origin: 95.7027px 133.059px;" id="elfcf6nbo1s2f" class="animable"></path><g id="elnnsrwwo378m"><path d="M98.44,131.25l-5.28-1a.51.51,0,0,0-.61.58l.51,3.86a.53.53,0,0,0,.41.45l3.61.73a.53.53,0,0,0,.6-.35l1.16-3.61A.52.52,0,0,0,98.44,131.25Zm.09.78-1,3.26a.49.49,0,0,1-.55.32l-3.25-.67a.46.46,0,0,1-.37-.4l-.47-3.49a.47.47,0,0,1,.56-.52l4.76.9A.46.46,0,0,1,98.53,132Z" style="fill: rgb(255, 255, 255); opacity: 0.3; transform-origin: 95.7027px 133.059px;" class="animable"></path></g><g id="el0l9kkap4ynl"><path d="M87.63,150.24a4.71,4.71,0,0,0,2.67-.38,4.59,4.59,0,0,0,1.76-3c.55-.71,1.1-1.48,1.68-2.14.16-.11.19-.11.45-.27-1.89,0-5,.11-5.67.55S87.64,148.55,87.63,150.24Z" style="opacity: 0.2; isolation: isolate; transform-origin: 90.91px 147.371px;" class="animable"></path></g><path d="M76.6,152.83l11.08,5,.65-4,4.08,1.43a3.35,3.35,0,0,1,2.22,3.51l-.46,4.4-5.62-3.08-2.81,4-13.32-6.41Z" style="fill: rgb(183, 119, 41); transform-origin: 83.5342px 158.46px;" id="elpj4uh20ljdf" class="animable"></path><g id="elxbvi5wjkgn"><path d="M76.6,152.83l11.08,5,.65-4,4.08,1.43a3.35,3.35,0,0,1,2.22,3.51l-.46,4.4-5.62-3.08-2.81,4-13.32-6.41Z" style="fill: rgb(255, 255, 255); opacity: 0.6; isolation: isolate; transform-origin: 83.5342px 158.46px;" class="animable"></path></g><g id="elgty5dafgrcw"><path d="M92.11,269.18a111.8,111.8,0,0,1,4.66,18.05c1.16-16-3.5-32.9-3.5-32.9Z" style="opacity: 0.2; isolation: isolate; transform-origin: 94.5327px 270.78px;" class="animable"></path></g><path d="M65,159c13.09,18,14.16,46.6,13,77.22h3c1.56-31,1.16-60.31-13.2-77.81Z" style="fill: rgb(255, 255, 255); transform-origin: 73.3097px 197.315px;" id="ely08p6xq5v78" class="animable"></path><path d="M94.91,156.14c12.78,16.47,12.41,47.27,11,79.21l2.49-.17c1.3-32,2.14-63.43-10.46-78.79Z" style="fill: rgb(255, 255, 255); transform-origin: 102.004px 195.745px;" id="elxsqp1da6xb8" class="animable"></path><path d="M79.49,162.64c.28-1,5.07-.86,5.94-.61l2.09.61.72,2.91a4.55,4.55,0,0,1-1.32,1.82c-1,.87-3.93,2.39-5.34,1.57s-.62-2.58-.62-2.58l.62-.8a1.43,1.43,0,0,1-1.19,0A3.18,3.18,0,0,1,79.49,162.64Z" style="fill: rgb(38, 50, 56); transform-origin: 83.8326px 165.512px;" id="el04ab9lmtk6st" class="animable"></path><g id="eliu5jroj4djs"><path d="M79.49,162.64c.28-1,5.07-.86,5.94-.61l2.09.61.72,2.91a4.55,4.55,0,0,1-1.32,1.82c-1,.87-3.93,2.39-5.34,1.57s-.62-2.58-.62-2.58l.62-.8a1.43,1.43,0,0,1-1.19,0A3.18,3.18,0,0,1,79.49,162.64Z" style="fill: rgb(255, 255, 255); opacity: 0.3; transform-origin: 83.8326px 165.512px;" class="animable"></path></g><path d="M91.53,162.39a2.61,2.61,0,0,1,1.25-.9c1-.45,3-1.28,4-.56a1.52,1.52,0,0,1,.5,2.34c-.57.59-.9.53-.9.53a1.07,1.07,0,0,1,1.18.21c.71.51,1.7,1.93.74,2.89s-4,0-4.61-.23a5.76,5.76,0,0,1-1.61-1.36Z" style="fill: rgb(38, 50, 56); transform-origin: 95.1139px 163.983px;" id="el9u0f7wm3trg" class="animable"></path><g id="elhn51y85ki5c"><path d="M91.53,162.39a2.61,2.61,0,0,1,1.25-.9c1-.45,3-1.28,4-.56a1.52,1.52,0,0,1,.5,2.34c-.57.59-.9.53-.9.53a1.07,1.07,0,0,1,1.18.21c.71.51,1.7,1.93.74,2.89s-4,0-4.61-.23a5.76,5.76,0,0,1-1.61-1.36Z" style="fill: rgb(255, 255, 255); opacity: 0.3; transform-origin: 95.1139px 163.983px;" class="animable"></path></g><path d="M87.4,162.17c-.48.69.53,4.15,1.11,4.44a8.23,8.23,0,0,0,3.77-.49c.28-.28-.37-4.07-.81-4.48S87.89,161.48,87.4,162.17Z" style="fill: rgb(38, 50, 56); transform-origin: 89.8111px 164.048px;" id="ely1bsurq4nx" class="animable"></path><g id="el67qszbvx1oj"><path d="M87.4,162.17c-.48.69.53,4.15,1.11,4.44a8.23,8.23,0,0,0,3.77-.49c.28-.28-.37-4.07-.81-4.48S87.89,161.48,87.4,162.17Z" style="fill: rgb(255, 255, 255); opacity: 0.4; transform-origin: 89.8111px 164.048px;" class="animable"></path></g><g id="elkry4yhanrec"><path d="M101.52,169.59c.13.38,5.43,16,10.62,28.92a208,208,0,0,0-2.65-23.93Z" style="opacity: 0.2; isolation: isolate; transform-origin: 106.83px 184.05px;" class="animable"></path></g><g id="el8yw4vqilcij"><path d="M67.43,205.47c.2,3.75.26,8.18.25,12.54,14.74-1.6,18.42-9.64,18.42-9.64L66.78,196.15C67.07,199.39,67.27,202.51,67.43,205.47Z" style="opacity: 0.2; isolation: isolate; transform-origin: 76.44px 207.08px;" class="animable"></path></g><path d="M104.33,158.8c9.46.76,28.06,31.69,24.56,38.41s-9.36,9.85-19.48-9.15S104.33,158.8,104.33,158.8Z" style="fill: rgb(183, 119, 41); transform-origin: 116.199px 180.608px;" id="elp3wywj3lfmq" class="animable"></path><g id="elf8ba2705vea"><path d="M104.33,158.8c9.46.76,28.06,31.69,24.56,38.41s-9.36,9.85-19.48-9.15S104.33,158.8,104.33,158.8Z" style="opacity: 0.2; isolation: isolate; transform-origin: 116.199px 180.608px;" class="animable"></path></g><path d="M106,173.22,96.54,157.9a6.65,6.65,0,0,1-3.88-2.49c-1.45-2-2.35-10-1.67-10.34s8,.5,8.49,1.48,2,9.1,2,9.1l10.84,12.7Z" style="fill: rgb(228, 137, 123); transform-origin: 101.539px 159.107px;" id="el1oiyfu7zbvp" class="animable"></path><path d="M127.15,186.64c-4.61-7.57-20.79-27.29-20.79-27.29l-7.52,5.06s13.54,27.46,18.62,32.8S133.65,197.34,127.15,186.64Z" style="fill: rgb(183, 119, 41); transform-origin: 113.988px 179.339px;" id="elr7r0nq2rx0r" class="animable"></path><g id="elzqmur20yt0p"><path d="M127.15,186.64c-4.61-7.57-20.79-27.29-20.79-27.29l-7.52,5.06s13.54,27.46,18.62,32.8S133.65,197.34,127.15,186.64Z" style="opacity: 0.1; isolation: isolate; transform-origin: 113.988px 179.339px;" class="animable"></path></g><polygon points="108.58 160.62 106.16 158.18 98.08 164.18 98.84 167.31 108.58 160.62" style="fill: rgb(183, 119, 41); transform-origin: 103.33px 162.745px;" id="elbaknsdcf85j" class="animable"></polygon><g id="el7u49p8f1xp4"><polygon points="108.58 160.62 106.16 158.18 98.08 164.18 98.84 167.31 108.58 160.62" style="fill: rgb(255, 255, 255); opacity: 0.6; isolation: isolate; transform-origin: 103.33px 162.745px;" class="animable"></polygon></g><path d="M96.43,197.49l17.93-1.24a6.71,6.71,0,0,1,4-2.29c2.48-.33,9.93,2.54,9.93,3.31s-4.14,6.85-5.24,6.85-9-2.49-9-2.49l-16.28,3.73Z" style="fill: rgb(228, 137, 123); transform-origin: 112.36px 199.647px;" id="el1onsyd8niww" class="animable"></path><path d="M61.87,160.09s-3.78,2.15-4.33,12.66c-.49,9.48,2.56,29.65,8.5,34.06,9.5,7,44-2.67,44-2.67L108.71,194s-26.12,3.46-32.34,0-8.08-21.21-8.08-21.21S65.69,161.18,61.87,160.09Z" style="fill: rgb(183, 119, 41); transform-origin: 83.7645px 184.722px;" id="elyiuovc3kv1" class="animable"></path><g id="elwsw75xwa71"><path d="M61.87,160.09s-3.78,2.15-4.33,12.66c-.49,9.48,2.56,29.65,8.5,34.06,9.5,7,44-2.67,44-2.67L108.71,194s-26.12,3.46-32.34,0-8.08-21.21-8.08-21.21S65.69,161.18,61.87,160.09Z" style="opacity: 0.1; isolation: isolate; transform-origin: 83.7645px 184.722px;" class="animable"></path></g><polygon points="105.45 193.26 107.18 206.04 110.35 204.81 109.54 193.46 105.45 193.26" style="fill: rgb(183, 119, 41); transform-origin: 107.9px 199.65px;" id="elkw82ur6qu7o" class="animable"></polygon><g id="elg3nqbdwhxq9"><polygon points="105.45 193.26 107.18 206.04 110.35 204.81 109.54 193.46 105.45 193.26" style="fill: rgb(255, 255, 255); opacity: 0.6; isolation: isolate; transform-origin: 107.9px 199.65px;" class="animable"></polygon></g></g><defs>     <filter id="active" height="200%">         <feMorphology in="SourceAlpha" result="DILATED" operator="dilate" radius="2"></feMorphology>                <feFlood flood-color="#32DFEC" flood-opacity="1" result="PINK"></feFlood>        <feComposite in="PINK" in2="DILATED" operator="in" result="OUTLINE"></feComposite>        <feMerge>            <feMergeNode in="OUTLINE"></feMergeNode>            <feMergeNode in="SourceGraphic"></feMergeNode>        </feMerge>    </filter>    <filter id="hover" height="200%">        <feMorphology in="SourceAlpha" result="DILATED" operator="dilate" radius="2"></feMorphology>                <feFlood flood-color="#ff0000" flood-opacity="0.5" result="PINK"></feFlood>        <feComposite in="PINK" in2="DILATED" operator="in" result="OUTLINE"></feComposite>        <feMerge>            <feMergeNode in="OUTLINE"></feMergeNode>            <feMergeNode in="SourceGraphic"></feMergeNode>        </feMerge>            <feColorMatrix type="matrix" values="0   0   0   0   0                0   1   0   0   0                0   0   0   0   0                0   0   0   1   0 "></feColorMatrix>    </filter></defs></svg>